# xmcd CD database file
#
# Track frame offsets:
#	150
#	11127
#	24886
#	36513
#	45807
#	58734
#	70023
#	79544
#	89949
#	101706
#	111877
#	123296
#	142255
#	153362
#
# Disc length: 2212 seconds
#
# Revision: 2
# Processed by: cddbd v1.5.2PL0 Copyright (c) Steve Scherf et al.
# Submitted via: CDex 1.50beta10
#
DISCID=b908a20e
DTITLE=Various Artist - The Best of Country, Disc 1
DYEAR=2006
DGENRE=Country
TTITLE0=Buck Owens - Above and Beyond
TTITLE1=Willie Nelson - Home Is Where You're Happy
TTITLE2=Floyd Cramer - Fancy Pants
TTITLE3=George Jones - I Love You Because
TTITLE4=Leroy Van Dyke - The Auctioneer
TTITLE5=Johnny Horton - All for the Love of a Girl
TTITLE6=Diana Trask - Say When
TTITLE7=Faron Young - If You Ain't Lovin'
TTITLE8=Justin Tubb - Looking Back to See
TTITLE9=The Jordanaires - Break My Mind
TTITLE10=Bobby Bare - That's How I Got to Memphis
TTITLE11=Cowboy Copas - The Cowboy's Deck of Cards
TTITLE12=Hank Thompson - Rednecks, White Socks and Blue Ribbon Beer
TTITLE13=Jerry Wallace - Shutters and Boards
EXTD=YEAR: 2006
EXTT0=
EXTT1=
EXTT2=
EXTT3=
EXTT4=
EXTT5=
EXTT6=
EXTT7=
EXTT8=
EXTT9=
EXTT10=
EXTT11=
EXTT12=
EXTT13=
PLAYORDER=
